<svg width="25" height="24" viewBox="0 0 25 24" fill="none" xmlns="http://www.w3.org/2000/svg">
<path d="M15.732 3H8.27195L3.00195 8.27V15.73L8.27195 21H15.732L21.002 15.73V8.27L15.732 3ZM19.002 14.9L14.902 19H9.10195L5.00195 14.9V9.1L9.10195 5H14.902L19.002 9.1V14.9Z" fill="#C60000"/>
<path d="M12.002 17C12.5542 17 13.002 16.5523 13.002 16C13.002 15.4477 12.5542 15 12.002 15C11.4497 15 11.002 15.4477 11.002 16C11.002 16.5523 11.4497 17 12.002 17Z" fill="#C60000"/>
<path d="M11.002 7H13.002V14H11.002V7Z" fill="#C60000"/>
</svg>
