<svg width="22" height="22" viewBox="0 0 22 22" fill="none" xmlns="http://www.w3.org/2000/svg">
<path d="M12.8333 9.16663C12.8333 10.175 12.0083 11 11 11C9.99167 11 9.16667 10.175 9.16667 9.16663C9.16667 8.15829 9.99167 7.33329 11 7.33329C12.0083 7.33329 12.8333 8.15829 12.8333 9.16663ZM17.875 9.16663C17.875 14.74 13.5942 18.2325 11.7608 19.47C11.5317 19.635 11.2658 19.7083 11 19.7083C10.7342 19.7083 10.4683 19.635 10.23 19.47C8.39667 18.2325 4.125 14.7491 4.125 9.16663C4.125 5.24329 7.07667 2.29163 11 2.29163C14.9142 2.29163 17.875 5.24329 17.875 9.16663ZM14.6667 9.16663C14.6667 7.14079 13.0258 5.49996 11 5.49996C8.97417 5.49996 7.33333 7.14079 7.33333 9.16663C7.33333 11.1925 8.97417 12.8333 11 12.8333C13.0258 12.8333 14.6667 11.1925 14.6667 9.16663Z" fill="#C60000"/>
</svg>
