<svg width="46" height="44" viewBox="0 0 46 44" fill="none" xmlns="http://www.w3.org/2000/svg">
<path d="M28.4804 4.54785H17.3546C10.7163 4.54785 5.30176 9.85977 5.30176 16.3723V27.2872C5.30176 33.7998 10.7163 39.1117 17.3546 39.1117H28.4804C35.1187 39.1117 40.5333 33.7998 40.5333 27.2872V16.3723C40.5333 9.85977 35.1187 4.54785 28.4804 4.54785ZM30.3347 23.6489H24.7718V29.1064C24.7718 30.1069 23.9374 30.9255 22.9175 30.9255C21.8976 30.9255 21.0632 30.1069 21.0632 29.1064V23.6489H15.5004C14.4805 23.6489 13.6461 22.8303 13.6461 21.8298C13.6461 20.8292 14.4805 20.0106 15.5004 20.0106H21.0632V14.5532C21.0632 13.5526 21.8976 12.734 22.9175 12.734C23.9374 12.734 24.7718 13.5526 24.7718 14.5532V20.0106H30.3347C31.3545 20.0106 32.189 20.8292 32.189 21.8298C32.189 22.8303 31.3545 23.6489 30.3347 23.6489Z" fill="#C60000"/>
</svg>
