<svg width="22" height="22" viewBox="0 0 22 22" fill="none" xmlns="http://www.w3.org/2000/svg">
<path d="M13.75 1.83423H8.24996C5.72271 1.83423 3.66663 3.89031 3.66663 6.41756V18.3324C3.66663 19.0163 4.04337 19.6387 4.64928 19.9559C5.25428 20.273 5.98122 20.228 6.54405 19.8394L10.9981 16.753L15.4568 19.8394C15.7703 20.0557 16.1342 20.1658 16.5 20.1658C16.7905 20.1658 17.0829 20.0961 17.3515 19.9559C17.9574 19.6378 18.3333 19.0163 18.3333 18.3324V6.41756C18.3333 3.89031 16.2772 1.83423 13.75 1.83423ZM16.5 18.3324L12.0422 15.246C11.7296 15.0305 11.3639 14.9215 10.9981 14.9215C10.6324 14.9215 10.2666 15.0296 9.95405 15.246L5.49996 18.3324V6.41756C5.49996 4.9014 6.73379 3.66756 8.24996 3.66756H13.75C15.2661 3.66756 16.5 4.9014 16.5 6.41756V18.3324Z" fill="#A1A1A1"/>
</svg>
