<svg width="24" height="24" viewBox="0 0 24 24" fill="none" xmlns="http://www.w3.org/2000/svg">
<path d="M16.5 13C15.122 13 14 14.121 14 15.5V19.5C14 20.879 15.122 22 16.5 22C17.878 22 19 20.879 19 19.5V15.5C19 14.121 17.878 13 16.5 13ZM17 19.5C17 19.775 16.776 20 16.5 20C16.224 20 16 19.775 16 19.5V15.5C16 15.225 16.224 15 16.5 15C16.776 15 17 15.225 17 15.5V19.5ZM7.5 13C6.122 13 5 14.121 5 15.5V19.5C5 20.879 6.122 22 7.5 22C8.878 22 10 20.879 10 19.5V15.5C10 14.121 8.878 13 7.5 13ZM8 19.5C8 19.775 7.776 20 7.5 20C7.224 20 7 19.775 7 19.5V15.5C7 15.225 7.224 15 7.5 15C7.776 15 8 15.225 8 15.5V19.5ZM22 12V17C22 17.553 21.552 18 21 18C20.448 18 20 17.553 20 17V12C20 7.589 16.411 4 12 4C7.589 4 4 7.589 4 12V17C4 17.553 3.552 18 3 18C2.448 18 2 17.553 2 17V12C2 6.486 6.486 2 12 2C17.514 2 22 6.486 22 12Z" fill="#C60000"/>
</svg>
