<svg width="22" height="21" viewBox="0 0 22 21" fill="none" xmlns="http://www.w3.org/2000/svg">
<path d="M7.53686 1.75H3.46322C3.03104 1.75023 2.61661 1.91422 2.31101 2.20592C2.00541 2.49763 1.83362 2.89321 1.83337 3.30575V7.19425C1.83362 7.60679 2.00541 8.00237 2.31101 8.29408C2.61661 8.58578 3.03104 8.74977 3.46322 8.75H7.53686C7.96904 8.74977 8.38347 8.58578 8.68907 8.29408C8.99467 8.00237 9.16646 7.60679 9.16671 7.19425V3.30575C9.16646 2.89321 8.99467 2.49763 8.68907 2.20592C8.38347 1.91422 7.96904 1.75023 7.53686 1.75V1.75Z" stroke="#A1A1A1" stroke-opacity="0.97" stroke-width="1.5" stroke-miterlimit="10"/>
<path d="M18.5369 1.75H14.4632C14.031 1.75023 13.6166 1.91422 13.311 2.20592C13.0054 2.49763 12.8336 2.89321 12.8334 3.30575V7.19425C12.8336 7.60679 13.0054 8.00237 13.311 8.29408C13.6166 8.58578 14.031 8.74977 14.4632 8.75H18.5369C18.969 8.74977 19.3835 8.58578 19.6891 8.29408C19.9947 8.00237 20.1665 7.60679 20.1667 7.19425V3.30575C20.1665 2.89321 19.9947 2.49763 19.6891 2.20592C19.3835 1.91422 18.969 1.75023 18.5369 1.75V1.75Z" stroke="#A1A1A1" stroke-opacity="0.97" stroke-width="1.5" stroke-miterlimit="10"/>
<path d="M7.53686 12.25H3.46322C3.03104 12.2502 2.61661 12.4142 2.31101 12.7059C2.00541 12.9976 1.83362 13.3932 1.83337 13.8057V17.6943C1.83362 18.1068 2.00541 18.5024 2.31101 18.7941C2.61661 19.0858 3.03104 19.2498 3.46322 19.25H7.53686C7.96904 19.2498 8.38347 19.0858 8.68907 18.7941C8.99467 18.5024 9.16646 18.1068 9.16671 17.6943V13.8057C9.16646 13.3932 8.99467 12.9976 8.68907 12.7059C8.38347 12.4142 7.96904 12.2502 7.53686 12.25V12.25Z" stroke="#A1A1A1" stroke-opacity="0.97" stroke-width="1.5" stroke-miterlimit="10"/>
<path d="M18.5369 12.25H14.4632C14.031 12.2502 13.6166 12.4142 13.311 12.7059C13.0054 12.9976 12.8336 13.3932 12.8334 13.8057V17.6943C12.8336 18.1068 13.0054 18.5024 13.311 18.7941C13.6166 19.0858 14.031 19.2498 14.4632 19.25H18.5369C18.969 19.2498 19.3835 19.0858 19.6891 18.7941C19.9947 18.5024 20.1665 18.1068 20.1667 17.6943V13.8057C20.1665 13.3932 19.9947 12.9976 19.6891 12.7059C19.3835 12.4142 18.969 12.2502 18.5369 12.25V12.25Z" stroke="#A1A1A1" stroke-opacity="0.97" stroke-width="1.5" stroke-miterlimit="10"/>
</svg>
