<svg width="57" height="57" viewBox="0 0 57 57" fill="none" xmlns="http://www.w3.org/2000/svg">
<mask id="mask0_307_338" style="mask-type:luminance" maskUnits="userSpaceOnUse" x="4" y="4" width="49" height="49">
<path fill-rule="evenodd" clip-rule="evenodd" d="M4.75098 4.75049H52.155V52.1313H4.75098V4.75049Z" fill="white"/>
</mask>
<g mask="url(#mask0_307_338)">
<path fill-rule="evenodd" clip-rule="evenodd" d="M18.1697 8.3125C12.1824 8.3125 8.31348 12.4141 8.31348 18.7601V38.1211C8.31348 44.4695 12.1824 48.5688 18.1697 48.5688H38.7135C44.7151 48.5688 48.5935 44.4695 48.5935 38.1211V18.7601C48.5935 12.4141 44.7151 8.3125 38.7135 8.3125H18.1697ZM38.7135 52.1313H18.1697C10.1422 52.1313 4.75098 46.5001 4.75098 38.1211V18.7601C4.75098 10.3811 10.1422 4.75 18.1697 4.75H38.7135C46.7529 4.75 52.156 10.3811 52.156 18.7601V38.1211C52.156 46.5001 46.7529 52.1313 38.7135 52.1313V52.1313Z" fill="#AFB1B6"/>
</g>
<path fill-rule="evenodd" clip-rule="evenodd" d="M12.5435 40.8034C12.1017 40.8034 11.6623 40.6419 11.318 40.3142C10.6031 39.6397 10.5746 38.5092 11.2515 37.7991L14.8805 33.9682C16.8018 31.9281 20.0437 31.8283 22.0933 33.7521L24.3686 36.0606C25.0027 36.7018 26.0335 36.7137 26.67 36.0867C26.9098 35.8041 32.0826 29.5222 32.0826 29.5222C33.0658 28.3299 34.4528 27.5937 35.9942 27.4417C37.538 27.3063 39.0366 27.7552 40.2312 28.7361C40.3333 28.8192 40.426 28.8999 45.6415 34.2556C46.3278 34.9586 46.316 36.0867 45.6106 36.7731C44.9076 37.4642 43.7771 37.4428 43.0907 36.7398C43.0907 36.7398 38.2243 31.7452 37.8776 31.4079C37.5095 31.1063 36.9181 30.9306 36.3362 30.9876C35.7448 31.0469 35.2128 31.3296 34.8352 31.7879C29.3157 38.4831 29.2492 38.5472 29.159 38.6351C27.1212 40.6348 23.8318 40.6016 21.8297 38.5591C21.8297 38.5591 19.621 36.3171 19.583 36.2719C19.0343 35.7637 18.0558 35.7969 17.4692 36.4168L13.8355 40.2477C13.484 40.6182 13.0137 40.8034 12.5435 40.8034V40.8034Z" fill="#AFB1B6"/>
<path fill-rule="evenodd" clip-rule="evenodd" d="M20.3245 19.3062C19.0111 19.3062 17.9424 20.3749 17.9424 21.6907C17.9424 23.0064 19.0111 24.0775 20.3269 24.0775C21.6426 24.0775 22.7138 23.0064 22.7138 21.6907C22.7138 20.3773 21.6426 19.3085 20.3245 19.3062M20.3269 27.64C17.047 27.64 14.3799 24.9705 14.3799 21.6907C14.3799 18.4108 17.047 15.7437 20.3269 15.7437C23.6091 15.746 26.2763 18.4155 26.2763 21.6907C26.2763 24.9705 23.6068 27.64 20.3269 27.64" fill="#AFB1B6"/>
</svg>
