<svg width="36" height="37" viewBox="0 0 36 37" fill="none" xmlns="http://www.w3.org/2000/svg">
<g clip-path="url(#clip0_490_1428)">
<path d="M0.768135 17.9235C0.767291 20.9718 1.56379 23.9483 3.07832 26.5718L0.623291 35.5355L9.79654 33.1302C12.3337 34.5115 15.1765 35.2352 18.0653 35.2354H18.0729C27.6094 35.2354 35.3723 27.4753 35.3764 17.9371C35.3782 13.3152 33.5799 8.96904 30.3126 5.69922C27.0459 2.42969 22.7013 0.628147 18.0722 0.626038C8.53457 0.626038 0.772213 8.38573 0.768275 17.9235" fill="url(#paint0_linear_490_1428)"/>
<path d="M0.150469 17.9179C0.149484 21.0759 0.974531 24.1588 2.54306 26.8762L0 36.1613L9.50217 33.6698C12.1203 35.0973 15.0681 35.85 18.0676 35.8511H18.0754C27.954 35.8511 35.9958 27.8118 36 17.9322C36.0017 13.1442 34.1387 8.64183 30.7547 5.25488C27.3703 1.86834 22.8703 0.00196875 18.0754 0C8.19506 0 0.154547 8.03813 0.150609 17.9179H0.150469ZM5.80922 26.4083L5.45442 25.845C3.96295 23.4735 3.17573 20.733 3.17686 17.919C3.18009 9.7072 9.86316 3.02625 18.081 3.02625C22.0607 3.02794 25.8007 4.57931 28.6138 7.39406C31.4267 10.2091 32.9746 13.9511 32.9736 17.9311C32.97 26.1429 26.2867 32.8247 18.0754 32.8247H18.0695C15.3958 32.8233 12.7735 32.1053 10.4867 30.7484L9.94247 30.4256L4.30369 31.904L5.80922 26.4081V26.4083Z" fill="url(#paint1_linear_490_1428)"/>
<path d="M13.5953 10.427C13.2597 9.68131 12.9066 9.66626 12.5875 9.65318C12.3263 9.64193 12.0276 9.64278 11.7292 9.64278C11.4305 9.64278 10.9452 9.75514 10.535 10.203C10.1243 10.6513 8.96729 11.7347 8.96729 13.9382C8.96729 16.1418 10.5722 18.2712 10.796 18.5704C11.02 18.8689 13.8944 23.5354 18.4467 25.3306C22.2301 26.8225 23 26.5258 23.8211 26.451C24.6423 26.3764 26.471 25.3679 26.8441 24.3221C27.2175 23.2764 27.2175 22.38 27.1055 22.1927C26.9936 22.0061 26.6949 21.894 26.247 21.6701C25.799 21.4461 23.5971 20.3626 23.1866 20.2131C22.776 20.0638 22.4774 19.9893 22.1787 20.4377C21.88 20.8855 21.0224 21.894 20.7609 22.1927C20.4998 22.4921 20.2384 22.5294 19.7906 22.3054C19.3425 22.0806 17.9001 21.6083 16.1888 20.0826C14.8574 18.8955 13.9585 17.4295 13.6972 16.981C13.4359 16.5333 13.6692 16.2905 13.8938 16.0674C14.095 15.8667 14.3418 15.5444 14.566 15.283C14.7893 15.0214 14.8638 14.8348 15.0132 14.5361C15.1627 14.2371 15.0878 13.9756 14.9761 13.7516C14.8638 13.5275 13.9935 11.3127 13.5953 10.4272" fill="white"/>
</g>
<defs>
<linearGradient id="paint0_linear_490_1428" x1="17.9998" y1="35.5355" x2="17.9998" y2="0.626038" gradientUnits="userSpaceOnUse">
<stop stop-color="#1FAF38"/>
<stop offset="1" stop-color="#60D669"/>
</linearGradient>
<linearGradient id="paint1_linear_490_1428" x1="18" y1="36.1613" x2="18" y2="0" gradientUnits="userSpaceOnUse">
<stop stop-color="#F9F9F9"/>
<stop offset="1" stop-color="white"/>
</linearGradient>
<clipPath id="clip0_490_1428">
<rect width="36" height="36.2812" fill="white"/>
</clipPath>
</defs>
</svg>
