<svg width="36" height="36" viewBox="0 0 36 36" fill="none" xmlns="http://www.w3.org/2000/svg">
<path d="M24.7505 31.7188H24.75C13.4629 31.7188 4.28125 22.5371 4.28125 11.25V11.2495C4.28337 9.27975 5.00246 7.37816 6.30422 5.8999C7.60597 4.42164 9.40134 3.46782 11.355 3.2166L11.3606 3.21587L11.3606 3.2159C11.8896 3.15398 12.4244 3.26477 12.8852 3.53173C13.346 3.79868 13.7081 4.2075 13.9175 4.69715L16.7438 11.2917L24.7505 31.7188ZM24.7505 31.7188C26.7203 31.7166 28.6219 30.9975 30.1001 29.6958C31.5784 28.394 32.5322 26.5987 32.7834 24.645L32.2875 24.5813M24.7505 31.7188L32.2875 24.5813M32.2875 24.5813L32.7841 24.6394C32.846 24.1104 32.7352 23.5757 32.4683 23.1148C32.2014 22.6541 31.7927 22.2921 31.3032 22.0826L32.2875 24.5813ZM22.7704 4.32653L22.7704 4.32649L22.7649 4.32507C22.4196 4.2365 22.0534 4.28722 21.7453 4.46629C21.4371 4.64536 21.2117 4.93842 21.1177 5.28222L21.1156 5.28982L21.1138 5.29749C21.0318 5.63957 21.0857 6.00013 21.2642 6.30323C21.4428 6.60633 21.732 6.82831 22.0709 6.92242L22.074 6.92326C23.7511 7.37734 25.2801 8.26275 26.5087 9.49134C27.7366 10.7193 28.6218 12.2473 29.0761 13.9234C29.1508 14.2103 29.3184 14.4643 29.5526 14.6461C29.7877 14.8285 30.0767 14.9277 30.3742 14.9281L30.4078 14.9282L30.4411 14.9238L30.652 14.8956L30.6812 14.8917L30.7098 14.8844C30.8827 14.8402 31.045 14.762 31.1873 14.6544C31.3296 14.5468 31.4491 14.412 31.5388 14.2577C31.6284 14.1034 31.6864 13.9328 31.7094 13.7559C31.7324 13.5798 31.7201 13.4009 31.6735 13.2296C31.0999 11.0955 29.9755 9.1497 28.4129 7.58713C26.8503 6.02456 24.9045 4.90012 22.7704 4.32653ZM26.0289 16.0953L26.0625 16.0954L26.0958 16.0909L26.3067 16.0628L26.344 16.0578L26.3801 16.0474C26.7187 15.949 27.0065 15.7241 27.1836 15.4192C27.3608 15.1143 27.4138 14.7529 27.3315 14.41L27.3299 14.4031L27.328 14.3963C26.9578 13.0249 26.2344 11.7745 25.2299 10.7701C24.2255 9.76566 22.9752 9.04222 21.6038 8.67198L21.5969 8.67014L21.59 8.66849C21.2471 8.58625 20.8857 8.63921 20.5808 8.81637C20.2759 8.99354 20.051 9.28131 19.9526 9.61995L19.9505 9.62741L19.9485 9.63494C19.86 9.97942 19.9117 10.3449 20.0922 10.6514C20.2721 10.9568 20.5654 11.1788 20.9081 11.2689C21.8223 11.5197 22.6554 12.004 23.3257 12.6743C23.9959 13.3445 24.4802 14.1775 24.731 15.0915C24.8059 15.378 24.9733 15.6317 25.2073 15.8133C25.4424 15.9956 25.7314 16.0949 26.0289 16.0953ZM31.3029 22.0825L24.7104 19.2571C24.7099 19.2569 24.7095 19.2567 24.709 19.2565C24.3337 19.0936 23.9234 19.0276 23.516 19.0646C23.1083 19.1017 22.7164 19.2407 22.3766 19.4689C22.3763 19.469 22.3761 19.4692 22.3759 19.4694L18.9497 21.7489C16.9289 20.7366 15.2885 19.0988 14.2731 17.0793L16.5475 13.62L16.5475 13.62L16.5501 13.616C16.7703 13.2741 16.9031 12.8833 16.9368 12.478C16.9706 12.0729 16.9044 11.6657 16.7439 11.2921L31.3029 22.0825ZM20.3417 24.057L20.3449 24.0548L23.7652 21.7701L30.0922 24.4817C29.8883 25.7173 29.2634 26.8466 28.3206 27.6764C27.3334 28.5452 26.0647 29.0266 24.7496 29.0313C20.035 29.0274 15.5146 27.1529 12.1809 23.8191C8.8472 20.4855 6.97265 15.9652 6.96875 11.2507C6.97336 9.93552 7.45474 8.66666 8.32363 7.67939C9.15338 6.7366 10.2827 6.11171 11.5183 5.90785L14.2304 12.2361L11.9565 15.7155L11.9562 15.7159C11.7245 16.071 11.5882 16.4799 11.5604 16.903C11.5326 17.3261 11.6143 17.7493 11.7975 18.1317L11.7975 18.1317L11.7994 18.1356C13.0998 20.7906 15.2496 22.9352 17.9077 24.2293L17.9077 24.2293L17.9152 24.2328C18.3011 24.4129 18.7266 24.4912 19.1513 24.4604C19.576 24.4297 19.9858 24.2908 20.3417 24.057Z" fill="#C60000" stroke="#C60000"/>
</svg>
