<svg width="100" height="100" viewBox="0 0 100 100" fill="none" xmlns="http://www.w3.org/2000/svg">
<g opacity="0.8">
<path fill-rule="evenodd" clip-rule="evenodd" d="M95.8334 50C95.8334 75.3131 75.3131 95.8334 50.0001 95.8334C24.687 95.8334 4.16675 75.3131 4.16675 50C4.16675 24.687 24.687 4.16669 50.0001 4.16669C75.3131 4.16669 95.8334 24.687 95.8334 50ZM12.5001 50C12.5001 70.7107 29.2894 87.5 50.0001 87.5C70.7108 87.5 87.5001 70.7107 87.5001 50C87.5001 29.2893 70.7108 12.5 50.0001 12.5C29.2894 12.5 12.5001 29.2893 12.5001 50ZM33.3334 29.1667C33.3334 25.894 36.9332 23.8989 39.7084 25.6334L73.0417 46.4667C75.6529 48.0986 75.6529 51.9014 73.0417 53.5333L39.7084 74.3667C36.9332 76.1012 33.3334 74.106 33.3334 70.8334V29.1667ZM41.6667 36.6844L62.9718 50L41.6667 63.3157V36.6844Z" fill="#FAFAFA"/>
</g>
</svg>
