<svg width="20" height="21" viewBox="0 0 20 21" fill="none" xmlns="http://www.w3.org/2000/svg">
<path d="M10 0.560059C4.486 0.560059 0 5.1298 0 10.7467C0 16.3637 4.486 20.9334 10 20.9334C15.514 20.9334 20 16.3637 20 10.7467C20 5.1298 15.514 0.560059 10 0.560059ZM10 18.8961C5.589 18.8961 2 15.2401 2 10.7467C2 6.25339 5.589 2.59739 10 2.59739C14.411 2.59739 18 6.25339 18 10.7467C18 15.2401 14.411 18.8961 10 18.8961ZM15 6.67206C15 7.23538 14.552 7.69073 14 7.69073H6C5.448 7.69073 5 7.23538 5 6.67206C5 6.10874 5.448 5.65339 6 5.65339H14C14.552 5.65339 15 6.10874 15 6.67206ZM13.5 10.7467C13.5 11.31 13.052 11.7654 12.5 11.7654H7.5C6.948 11.7654 6.5 11.31 6.5 10.7467C6.5 10.1834 6.948 9.72806 7.5 9.72806H12.5C13.052 9.72806 13.5 10.1834 13.5 10.7467ZM12 14.8214C12 15.3847 11.552 15.8401 11 15.8401H9C8.448 15.8401 8 15.3847 8 14.8214C8 14.2581 8.448 13.8027 9 13.8027H11C11.552 13.8027 12 14.2581 12 14.8214Z" fill="black"/>
</svg>
