<svg width="19" height="19" viewBox="0 0 19 19" fill="none" xmlns="http://www.w3.org/2000/svg">
<path d="M16.625 3.95834H13.8074C13.4662 3.95834 13.1646 3.74144 13.0562 3.41765L12.806 2.66551C12.5899 2.01872 11.9858 1.58334 11.3042 1.58334H7.69498C7.01256 1.58334 6.40854 2.01879 6.19321 2.66638L5.94306 3.41688C5.83539 3.74067 5.53294 3.95834 5.19174 3.95834H2.375C1.938 3.95834 1.58333 4.31222 1.58333 4.75001C1.58333 5.1878 1.938 5.54168 2.375 5.54168H3.21813L3.81265 14.4606C3.92269 16.1183 5.3105 17.4167 6.97221 17.4167H12.0286C13.6903 17.4167 15.0781 16.1175 15.1881 14.4606L15.7826 5.54168H16.625C17.062 5.54168 17.4167 5.1878 17.4167 4.75001C17.4167 4.31222 17.062 3.95834 16.625 3.95834ZM7.6958 3.16668L11.305 3.1659L11.5552 3.91795C11.5599 3.9322 11.567 3.94409 11.5726 3.95834H7.42898C7.43373 3.94409 7.44167 3.93143 7.44642 3.91718L7.6958 3.16668ZM13.608 14.3553C13.5526 15.1842 12.859 15.8333 12.0278 15.8333H6.97144C6.14098 15.8333 5.44666 15.1842 5.39125 14.3553L4.8046 5.54168H5.19256C5.27727 5.54168 5.36035 5.53057 5.44348 5.52187C5.47752 5.52662 5.50681 5.54168 5.54244 5.54168H13.4591C13.4939 5.54168 13.524 5.52582 13.5581 5.52187C13.6412 5.53057 13.7235 5.54168 13.809 5.54168H14.1969L13.608 14.3553ZM11.875 8.70834V12.6667C11.875 13.1045 11.5203 13.4583 11.0833 13.4583C10.6463 13.4583 10.2917 13.1045 10.2917 12.6667V8.70834C10.2917 8.27055 10.6463 7.91668 11.0833 7.91668C11.5203 7.91668 11.875 8.27055 11.875 8.70834ZM8.70833 8.70834V12.6667C8.70833 13.1045 8.35366 13.4583 7.91667 13.4583C7.47967 13.4583 7.125 13.1045 7.125 12.6667V8.70834C7.125 8.27055 7.47967 7.91668 7.91667 7.91668C8.35366 7.91668 8.70833 8.27055 8.70833 8.70834Z" fill="white"/>
</svg>
