<svg width="46" height="46" viewBox="0 0 46 46" fill="none" xmlns="http://www.w3.org/2000/svg">
<path d="M16.416 11.917C16.2799 11.5973 16.054 11.324 15.7657 11.1301C15.4774 10.9362 15.139 10.83 14.7917 10.8245H9.04166C8.89062 10.8159 8.73977 10.8441 8.60205 10.9067C8.46434 10.9693 8.34388 11.0644 8.25103 11.1838C8.17419 11.3198 8.13381 11.4733 8.13381 11.6295C8.13381 11.7856 8.17419 11.9391 8.25103 12.0751L12.1754 18.8745L5.99416 29.7851C5.91301 29.9195 5.87012 30.0736 5.87012 30.2307C5.87012 30.3878 5.91301 30.5418 5.99416 30.6763C6.07128 30.8042 6.18135 30.909 6.31284 30.9798C6.44433 31.0506 6.59243 31.0848 6.74166 31.0788H12.4917C12.8363 31.0681 13.17 30.9559 13.4513 30.7565C13.7325 30.5571 13.9487 30.2792 14.0729 29.9576L20.3404 18.8745L16.416 11.917ZM40.0054 4.14008C40.0796 4.00327 40.1185 3.8501 40.1185 3.69445C40.1185 3.53881 40.0796 3.38563 40.0054 3.24883C39.9204 3.12714 39.8059 3.02902 39.6727 2.96365C39.5394 2.89828 39.3918 2.8678 39.2435 2.87508H33.3785C33.0391 2.88466 32.7102 2.99504 32.4338 3.19216C32.1573 3.38927 31.9457 3.66421 31.826 3.98195C31.826 3.98195 19.3198 26.1626 18.8885 26.8813L27.1398 42.0182C27.2743 42.3373 27.4974 42.6112 27.7827 42.8073C28.0681 43.0035 28.4037 43.1138 28.7498 43.1251H34.4998C34.6508 43.1378 34.8024 43.1098 34.9389 43.0441C35.0754 42.9784 35.1918 42.8773 35.276 42.7513C35.3543 42.6158 35.3954 42.4621 35.3954 42.3057C35.3954 42.1493 35.3543 41.9956 35.276 41.8601L27.0967 26.9101L40.0054 4.14008Z" fill="#E91818"/>
</svg>
